<?xml version="1.0" encoding="UTF-8"?>
<svg version="1.1" xmlns="http://www.w3.org/2000/svg" width="70" height="70">
<path d="M0 0 C23.1 0 46.2 0 70 0 C70 23.1 70 46.2 70 70 C46.9 70 23.8 70 0 70 C0 46.9 0 23.8 0 0 Z " fill="#FCFDFE" transform="translate(0,0)"/>
<path d="M0 0 C3.69958879 0.50448938 7.34007171 1.26801434 11 2 C12.051875 2.103125 13.10375 2.20625 14.1875 2.3125 C15.5796875 2.6528125 15.5796875 2.6528125 17 3 C18.0625 4.9375 18.0625 4.9375 19 7 C19.825 7.28875 20.65 7.5775 21.5 7.875 C24 9 24 9 25.25 11.875 C25.4975 12.90625 25.745 13.9375 26 15 C26.185625 15.639375 26.37125 16.27875 26.5625 16.9375 C27.74551979 22.51459329 28.42768837 27.3990687 27 33 C24.9375 34.4375 24.9375 34.4375 23 35 C23 36.65 23 38.3 23 40 C22.195625 40.20625 21.39125 40.4125 20.5625 40.625 C17.75141447 41.75690079 17.75141447 41.75690079 17.125 44.6015625 C16.95998872 49.0878066 18.39738331 51.83881584 20.4375 55.75 C24 62.82071429 24 62.82071429 24 65 C21.03 64.67 18.06 64.34 15 64 C14.54625 64.825 14.0925 65.65 13.625 66.5 C13.08875 67.325 12.5525 68.15 12 69 C11.34 69 10.68 69 10 69 C8.02 64.05 6.04 59.1 4 54 C3.34 56.64 2.68 59.28 2 62 C1.34 62 0.68 62 0 62 C-3 57.61538462 -3 57.61538462 -3 55 C-5.97 56.32 -8.94 57.64 -12 59 C-10 49.42857143 -10 49.42857143 -8 45 C-8.66 45 -9.32 45 -10 45 C-10.2475 44.38125 -10.495 43.7625 -10.75 43.125 C-11.81738099 40.84456841 -11.81738099 40.84456841 -14.0625 40.0625 C-15.0215625 39.5365625 -15.0215625 39.5365625 -16 39 C-16.37309899 37.34178227 -16.70700977 35.67422986 -17 34 C-17.99 33.34 -18.98 32.68 -20 32 C-20.125 29.125 -20.125 29.125 -20 26 C-20.32483418 24.66457061 -20.6550855 23.33038449 -21 22 C-20.67 21.67 -20.34 21.34 -20 21 C-19.63239269 18.67182036 -19.29758419 16.3381615 -19 14 C-17.68 13.67 -16.36 13.34 -15 13 C-15 11.35 -15 9.7 -15 8 C-13.824375 7.87625 -13.824375 7.87625 -12.625 7.75 C-11.75875 7.5025 -10.8925 7.255 -10 7 C-9.71125 6.360625 -9.4225 5.72125 -9.125 5.0625 C-8 3 -8 3 -4.4375 1.8125 C-3.303125 1.544375 -2.16875 1.27625 -1 1 C-0.67 0.67 -0.34 0.34 0 0 Z " fill="#FBFBFD" transform="translate(31,0)"/>
<path d="M0 0 C3.69806223 0.50428121 7.34514648 1.24753016 11 2 C11 2.66 11 3.32 11 4 C10.2265625 3.95359375 9.453125 3.9071875 8.65625 3.859375 C1.84380887 3.62330031 -3.43916141 3.79389007 -9 8 C-12.56263321 11.40773611 -15.6487042 15.3173775 -16.30078125 20.296875 C-16.33200362 26.83275798 -15.95583863 32.71573485 -11.41796875 37.7578125 C-5.83438665 42.79398459 -1.07947597 44.48435863 6.43359375 44.31640625 C11.76229486 43.6594431 15.60402409 41.43370499 19.3125 37.625 C23.1578674 31.64331737 25.2005889 27.13492834 24 20 C21.60245589 12.83933494 18.39245899 8.88561233 12 5 C12 4.67 12 4.34 12 4 C14.25 3.75 14.25 3.75 17 4 C19.125 5.9375 19.125 5.9375 21 8 C21.99 8.33 22.98 8.66 24 9 C25.125 11.8125 25.125 11.8125 26 15 C26.185625 15.639375 26.37125 16.27875 26.5625 16.9375 C27.74551979 22.51459329 28.42768837 27.3990687 27 33 C24.9375 34.4375 24.9375 34.4375 23 35 C23 36.65 23 38.3 23 40 C22.195625 40.20625 21.39125 40.4125 20.5625 40.625 C17.75141447 41.75690079 17.75141447 41.75690079 17.125 44.6015625 C16.95998872 49.0878066 18.39738331 51.83881584 20.4375 55.75 C24 62.82071429 24 62.82071429 24 65 C21.03 64.67 18.06 64.34 15 64 C14.54625 64.825 14.0925 65.65 13.625 66.5 C13.08875 67.325 12.5525 68.15 12 69 C11.34 69 10.68 69 10 69 C8.02 64.05 6.04 59.1 4 54 C3.34 56.64 2.68 59.28 2 62 C1.34 62 0.68 62 0 62 C-3 57.61538462 -3 57.61538462 -3 55 C-5.97 56.32 -8.94 57.64 -12 59 C-10 49.42857143 -10 49.42857143 -8 45 C-8.66 45 -9.32 45 -10 45 C-10.2475 44.38125 -10.495 43.7625 -10.75 43.125 C-11.81738099 40.84456841 -11.81738099 40.84456841 -14.0625 40.0625 C-15.0215625 39.5365625 -15.0215625 39.5365625 -16 39 C-16.37309899 37.34178227 -16.70700977 35.67422986 -17 34 C-17.99 33.34 -18.98 32.68 -20 32 C-20.125 29.125 -20.125 29.125 -20 26 C-20.32483418 24.66457061 -20.6550855 23.33038449 -21 22 C-20.67 21.67 -20.34 21.34 -20 21 C-19.63239269 18.67182036 -19.29758419 16.3381615 -19 14 C-17.68 13.67 -16.36 13.34 -15 13 C-15 11.35 -15 9.7 -15 8 C-13.824375 7.87625 -13.824375 7.87625 -12.625 7.75 C-11.75875 7.5025 -10.8925 7.255 -10 7 C-9.71125 6.360625 -9.4225 5.72125 -9.125 5.0625 C-8 3 -8 3 -4.4375 1.8125 C-3.303125 1.544375 -2.16875 1.27625 -1 1 C-0.67 0.67 -0.34 0.34 0 0 Z " fill="#1FE4C0" transform="translate(31,0)"/>
<path d="M0 0 C0.83595703 0.00902344 1.67191406 0.01804688 2.53320312 0.02734375 C4.58475969 0.05079011 6.63616777 0.08665734 8.6875 0.125 C6.7075 1.115 6.7075 1.115 4.6875 2.125 C6.2653125 3.053125 6.2653125 3.053125 7.875 4 C13.14892929 7.79465644 15.86845932 13.1496562 17.16796875 19.45703125 C17.5660488 25.60037477 15.29705181 30.25871942 11.6875 35.125 C7.11557834 40.04400472 2.51326733 42.18582246 -4.125 42.5 C-10.20695944 42.34636952 -14.5827588 40.63029581 -19.0703125 36.51171875 C-24.26600782 30.85167385 -25.8634795 25.28092468 -25.69140625 17.65234375 C-24.84989357 12.03936745 -21.4633262 7.93842846 -17.3125 4.25 C-11.48850583 0.1246708 -6.93308943 -0.14227334 0 0 Z M-12.3125 8.125 C-13.67494796 9.76795195 -15.01114875 11.43324337 -16.3125 13.125 C-17.3025 13.62 -17.3025 13.62 -18.3125 14.125 C-20.10233568 19.49450705 -20.19681724 24.32235333 -17.6875 29.4375 C-13.89198576 33.73242401 -11.16919475 35.91870058 -5.375 36.5625 C0.16261635 36.23426653 4.29278353 34.66652873 8.0625 30.5 C10.6316403 25.16409322 11.48565951 20.56642908 9.625 14.875 C6.70678756 10.73302105 3.59317035 7.76022345 -1.3125 6.125 C-7.16728024 5.75167263 -7.16728024 5.75167263 -12.3125 8.125 Z " fill="#DCE2F6" transform="translate(39.3125,2.875)"/>
<path d="M0 0 C3.69806223 0.50428121 7.34514648 1.24753016 11 2 C11 2.66 11 3.32 11 4 C10.2265625 3.95359375 9.453125 3.9071875 8.65625 3.859375 C1.84380887 3.62330031 -3.43916141 3.79389007 -9 8 C-12.56263321 11.40773611 -15.6487042 15.3173775 -16.30078125 20.296875 C-16.33200362 26.83275798 -15.95583863 32.71573485 -11.41796875 37.7578125 C-5.83438665 42.79398459 -1.07947597 44.48435863 6.43359375 44.31640625 C11.76229486 43.6594431 15.60402409 41.43370499 19.3125 37.625 C23.1578674 31.64331737 25.2005889 27.13492834 24 20 C21.60245589 12.83933494 18.39245899 8.88561233 12 5 C12 4.67 12 4.34 12 4 C14.25 3.75 14.25 3.75 17 4 C19.125 5.9375 19.125 5.9375 21 8 C21.99 8.33 22.98 8.66 24 9 C25.125 11.8125 25.125 11.8125 26 15 C26.185625 15.639375 26.37125 16.27875 26.5625 16.9375 C27.74551979 22.51459329 28.42768837 27.3990687 27 33 C24.9375 34.4375 24.9375 34.4375 23 35 C23 36.65 23 38.3 23 40 C22.21625 40.268125 21.4325 40.53625 20.625 40.8125 C17.71885077 41.84814432 17.71885077 41.84814432 16 45 C12.10834729 46.36928521 9.14156548 47 5 47 C2.66365343 47.31151288 0.32961443 47.64159778 -2 48 C-2.33 47.34 -2.66 46.68 -3 46 C-4.7015625 45.814375 -4.7015625 45.814375 -6.4375 45.625 C-7.613125 45.41875 -8.78875 45.2125 -10 45 C-11.1875 43.0625 -11.1875 43.0625 -12 41 C-12.680625 40.690625 -13.36125 40.38125 -14.0625 40.0625 C-15.0215625 39.5365625 -15.0215625 39.5365625 -16 39 C-16.37309899 37.34178227 -16.70700977 35.67422986 -17 34 C-17.99 33.34 -18.98 32.68 -20 32 C-20.125 29.125 -20.125 29.125 -20 26 C-20.32483418 24.66457061 -20.6550855 23.33038449 -21 22 C-20.67 21.67 -20.34 21.34 -20 21 C-19.63239269 18.67182036 -19.29758419 16.3381615 -19 14 C-17.68 13.67 -16.36 13.34 -15 13 C-15 11.35 -15 9.7 -15 8 C-13.824375 7.87625 -13.824375 7.87625 -12.625 7.75 C-11.75875 7.5025 -10.8925 7.255 -10 7 C-9.71125 6.360625 -9.4225 5.72125 -9.125 5.0625 C-8 3 -8 3 -4.4375 1.8125 C-3.303125 1.544375 -2.16875 1.27625 -1 1 C-0.67 0.67 -0.34 0.34 0 0 Z " fill="#1D46CD" transform="translate(31,0)"/>
<path d="M0 0 C0.66 0.33 1.32 0.66 2 1 C0.38405168 3.04119788 -1.2856382 5.04072937 -3 7 C-3.66 7 -4.32 7 -5 7 C-5.54075754 15.00889197 -5.54075754 15.00889197 -3.3125 22.5625 C-0.10639917 25.94190357 2.39454208 27.84892178 7.11328125 28.29296875 C8.16902344 28.25816406 9.22476563 28.22335938 10.3125 28.1875 C11.38113281 28.16042969 12.44976562 28.13335937 13.55078125 28.10546875 C14.76314453 28.05326172 14.76314453 28.05326172 16 28 C13.43599223 30.56400777 12.31217985 30.32633634 8.75 30.375 C3.6804597 30.2689704 0.82044227 29.54089771 -3 26 C-6.93532241 21.4265172 -8.43409282 16.9763477 -8 11 C-6.53007252 6.26995403 -4.40026272 2.51443584 0 0 Z " fill="#3A5ED3" transform="translate(26,10)"/>
<path d="M0 0 C0.2475 0.53625 0.495 1.0725 0.75 1.625 C3.78781013 7.39683924 7.0465996 12.0232998 13 15 C13 15.66 13 16.32 13 17 C11.02 17 9.04 17 7 17 C6.7525 16.38125 6.505 15.7625 6.25 15.125 C5.18261901 12.84456841 5.18261901 12.84456841 2.9375 12.0625 C2.298125 11.711875 1.65875 11.36125 1 11 C0.62690101 9.34178227 0.29299023 7.67422986 0 6 C-0.99 5.34 -1.98 4.68 -3 4 C-3 3.34 -3 2.68 -3 2 C-2.01 1.34 -1.02 0.68 0 0 Z " fill="#2E55D1" transform="translate(14,28)"/>
<path d="M0 0 C0.66 0.33 1.32 0.66 2 1 C0.38405168 3.04119788 -1.2856382 5.04072937 -3 7 C-3.66 7 -4.32 7 -5 7 C-5.04898437 7.63808594 -5.09796875 8.27617187 -5.1484375 8.93359375 C-5.22320313 9.75988281 -5.29796875 10.58617187 -5.375 11.4375 C-5.47941406 12.67306641 -5.47941406 12.67306641 -5.5859375 13.93359375 C-5.72257812 14.61550781 -5.85921875 15.29742187 -6 16 C-6.66 16.33 -7.32 16.66 -8 17 C-7.72987799 10.9222547 -7.0169245 6.84393837 -3 2 C-2.01 1.34 -1.02 0.68 0 0 Z " fill="#5E7CDB" transform="translate(26,10)"/>
<path d="M0 0 C2.25 -0.25 2.25 -0.25 5 0 C7.125 1.9375 7.125 1.9375 9 4 C9.99 4.33 10.98 4.66 12 5 C12 6.65 12 8.3 12 10 C11.01 10.495 11.01 10.495 10 11 C9.46375 10.0925 8.9275 9.185 8.375 8.25 C6.16271608 4.88382698 3.42841736 3.10380156 0 1 C0 0.67 0 0.34 0 0 Z " fill="#284FD0" transform="translate(43,4)"/>
<path d="M0 0 C5.61 0 11.22 0 17 0 C12 4 12 4 8.9375 3.6875 C7.968125 3.460625 6.99875 3.23375 6 3 C3.72349255 3.3577614 3.72349255 3.3577614 2 4 C1.34 2.68 0.68 1.36 0 0 Z " fill="#0A44C8" transform="translate(27,44)"/>
<path d="M0 0 C3.68266103 0.59950296 7.34543185 1.24758891 11 2 C11 2.66 11 3.32 11 4 C6.38 4 1.76 4 -3 4 C-2.01 2.68 -1.02 1.36 0 0 Z " fill="#1641CC" transform="translate(31,0)"/>
<path d="M0 0 C1.65 0 3.3 0 5 0 C5 0.66 5 1.32 5 2 C1.04 3.98 1.04 3.98 -3 6 C-3.99 5.34 -4.98 4.68 -6 4 C-4.68 4 -3.36 4 -2 4 C-1.34 2.68 -0.68 1.36 0 0 Z " fill="#3258D2" transform="translate(23,3)"/>
<path d="M0 0 C-0.3125 1.9375 -0.3125 1.9375 -1 4 C-1.99 4.33 -2.98 4.66 -4 5 C-4 6.65 -4 8.3 -4 10 C-5.125 8.3125 -5.125 8.3125 -6 6 C-5.25 3.3125 -5.25 3.3125 -4 1 C-2 0 -2 0 0 0 Z " fill="#3157D1" transform="translate(58,30)"/>
<path d="M0 0 C0 2.64 0 5.28 0 8 C-0.99 8.495 -0.99 8.495 -2 9 C-2.66 6.69 -3.32 4.38 -4 2 C-1 0 -1 0 0 0 Z " fill="#1943CC" transform="translate(14,21)"/>
<path d="M0 0 C1.98 0.66 3.96 1.32 6 2 C6 2.66 6 3.32 6 4 C4.02 4 2.04 4 0 4 C0 2.68 0 1.36 0 0 Z " fill="#255BCE" transform="translate(21,41)"/>
<path d="M0 0 C0.66 0.33 1.32 0.66 2 1 C0.35 2.98 -1.3 4.96 -3 7 C-3.33 5.68 -3.66 4.36 -4 3 C-2.68 2.01 -1.36 1.02 0 0 Z " fill="#90A5E6" transform="translate(26,10)"/>
</svg>
